<?xml version="1.0" encoding="utf-8"?>
<!-- Generator: Adobe Illustrator 25.2.1, SVG Export Plug-In . SVG Version: 6.00 Build 0)  -->
<svg version="1.1" id="Capa_1" xmlns="http://www.w3.org/2000/svg" xmlns:xlink="http://www.w3.org/1999/xlink" x="0px" y="0px"
	 viewBox="0 0 266.2 236.3" style="enable-background:new 0 0 266.2 236.3;" xml:space="preserve">
<style type="text/css">
	.st0{fill:#00ECFF;}
</style>
<g>
	<g>
		<g>
			<path class="st0" d="M116.4,113.1L53.8,76.4c-2-1.2-3.3-3.4-3.3-5.8V44c0-5.2,5.6-8.4,10.1-5.8l87,51.3c2.5,1.5,2.7,5.1,0.2,6.8
				l-24.2,16.6C121.5,114.3,118.7,114.4,116.4,113.1z"/>
		</g>
		<g>
			<path class="st0" d="M50.6,149.4v32.4c0,2.5,1.4,4.8,3.7,6l28.6,14.6c2,1,4.4,1,6.4-0.2L216,128.9c2.1-1.2,3.4-3.4,3.4-5.8V92.6
				c0-3.1-3.4-5.1-6.1-3.5l-123,72.6c-2.1,1.2-4.7,1.2-6.8,0l-26.8-15.9C54,144.3,50.6,146.2,50.6,149.4z"/>
		</g>
	</g>
</g>
</svg>
